<svg id="Layer_1" data-name="Layer 1" xmlns="http://www.w3.org/2000/svg" viewBox="0 0 291.97 87.87"><defs><style>.cls-1{fill:#00a758;}.cls-2{fill:#231f20;}</style></defs><title>Manulife_rgb_HK</title><polygon class="cls-1" points="51.02 34.07 51.02 59.58 56.69 53.91 56.69 28.4 51.02 34.07"/><polygon class="cls-1" points="39.69 59.58 45.35 53.91 45.35 28.4 39.69 34.07 39.69 59.58"/><polygon class="cls-1" points="28.35 59.58 34.02 53.91 34.02 28.4 28.35 34.07 28.35 59.58"/><path class="cls-2" d="M119.64,55.33V53.48a5.94,5.94,0,0,1-4.77,2.23c-2.87,0-5.24-1.82-5.24-4.92,0-3.78,3.54-5.15,7-5.53l1.35-.15c1.32-.12,1.79-.85,1.79-1.73,0-1.08-1-1.87-2.58-1.87A5.44,5.44,0,0,0,113,43.82l-2-2.43a7.84,7.84,0,0,1,6.38-2.78c3.75,0,5.91,1.93,5.91,5.15V55.33Zm0-7.82-2.46.29c-2.14.26-4,1-4,2.84a2.3,2.3,0,0,0,2.55,2.17,5.31,5.31,0,0,0,4-2.23V47.51Z"/><path class="cls-2" d="M130.09,55.33h-3.6V39h3.6v1.84a8.21,8.21,0,0,1,5.33-2.23c1.93,0,4.57,1.11,4.57,5.1V55.33h-3.6V44.64c0-1.61-.67-3-2.34-3a7.12,7.12,0,0,0-4,1.93Z"/><path class="cls-2" d="M152.66,39h3.6V55.33h-3.72V53.57a7,7,0,0,1-4.71,2.14c-2.11,0-5-1.11-5-5.21V39h3.6V49.32c0,1.9.82,3.22,2.52,3.22a5.35,5.35,0,0,0,3.75-2Z"/><path class="cls-2" d="M163.84,55.33h-3.6V33.83l3.6-3.57Z"/><path class="cls-2" d="M169.7,31.64A2.31,2.31,0,0,1,172,33.92a2.3,2.3,0,1,1-2.28-2.28Zm1.87,23.69h-3.75V39h3.75Z"/><path class="cls-2" d="M183,42h-3.43V55.33H176V42h-2.19V39H176V35.62a4.86,4.86,0,0,1,5.12-5.12,8.24,8.24,0,0,1,3.69.85l-1.14,2.81a4.19,4.19,0,0,0-2-.59,2.08,2.08,0,0,0-2.08,2.25V39h4.27Z"/><path class="cls-2" d="M187.26,48.12a4.32,4.32,0,0,0,4.19,4.51,5.15,5.15,0,0,0,4.22-2.52l2.25,2.11a8.37,8.37,0,0,1-6.82,3.48c-4.66,0-7.55-3.51-7.55-8.55,0-4.86,3.13-8.55,7.67-8.55,4.33,0,7.38,2.84,7.2,9.52Zm7.38-2.75a3.58,3.58,0,0,0-3.46-3.86,4.05,4.05,0,0,0-3.81,3.86Z"/><path class="cls-2" d="M89,55.33H85V32.65h4.25L96,43.81H96l6.65-11.16h4.16V55.33h-4V39.27h-.06L95.93,50.69,89,39.27H89Z"/><path class="cls-2" d="M221.69,32.45V29.33H219v3.12H208v5.4h2.47V34.92h19.76v2.93h2.47v-5.4ZM224.6,48.4l3,4.07-9.26.63A39.86,39.86,0,0,0,223,45l-2.61-1a30.26,30.26,0,0,1-5.94,9.4l.91,2.69,13.78-1.51,1.48,2,2.06-1.51-6-8.24Zm-4.79-11.48-2.69-1a36.25,36.25,0,0,1-1.23,3.75H208v2.56h6.83a28.08,28.08,0,0,1-7.89,10.32l2.12,2.12a32.83,32.83,0,0,0,8.84-12.45h14.79V39.69H218.91C219.28,38.65,219.48,38,219.81,36.92Z"/><path class="cls-2" d="M257.49,32.74h-2.67v17h2.67Zm3.46-2.87V53.46h-7.27l2.67,2.67h7.28V29.87Zm-13.77,3.34a38.43,38.43,0,0,0,4.95-1.46L251,29.36c-2.69,1.2-8.22,2.47-12.41,3.12l.53,2.14s3.54-.48,5.31-.83v3.8h-5.81v2.5h5.81a57.12,57.12,0,0,1-6.39,9.63l2,2a55.17,55.17,0,0,0,4.43-7.16V56.13h2.7V44.51s2.66,2.89,3.65,4.08l1.9-1.9c-.65-.62-5.55-5.2-5.55-5.2v-1.4h5.64v-2.5h-5.64Z"/></svg>
